<svg xmlns="http://www.w3.org/2000/svg" viewBox="0 0 841.88976 467.71654"><path d="M662.37606,78.95008,770.98229,143.1647V273.74415l-50.83212,30.05546L694.77,318.80537v39.05178L553.77178,273.8576V143.16446L662.37606,78.95008m0-60.04266L502.08743,113.681V303.22778L746.45436,448.80912v-100.52l76.21227-45.06134V113.681L662.37606,18.90742Z" fill="#009ada"/><path d="M63.69484,160.93285H19.22313V125.50257h129.751v35.43028H104.2558V296.54992h-40.561Z" fill="#009ada"/><path d="M145.30129,258.18659c0-28.83307,12.22106-35.91913,34.94576-39.09877,11.48564-1.70878,25.65775-2.92873,40.31871-3.66415v-15.8809c0-3.66849-1.46653-5.13069-5.135-5.13069H192.95263c-3.66415,0-5.13068,1.4622-5.13068,5.13069v7.5749H149.70087v-10.9968c0-21.50475,10.01911-31.52387,31.52386-31.52387h46.1805c21.50475,0,31.52386,10.01912,31.52386,31.52387v100.429H221.7857V277.736c-7.32831,9.77253-17.83627,19.79164-40.561,19.79164C155.80924,297.52761,145.30129,287.01965,145.30129,258.18659Zm75.26447-.24659V236.92842L191.24385,242.548c-5.62386,1.21994-7.5749,3.4219-7.5749,12.46332,0,9.77253,1.70878,12.459,7.81715,12.459C203.46059,267.47027,211.03549,263.31727,220.56576,257.94Z" fill="#009ada"/><path d="M285.5602,118.16993h38.6056v178.38H285.5602Z" fill="#009ada"/><path d="M432.16542,296.79218,407.9742,245.96985l-18.07853,23.94464v26.63543H352.02118v-178.38h37.87449V221.532l36.89681-56.935h43.494l-38.12108,49.849,40.5653,82.10394Z" fill="#009ada"/><polygon points="741.008 174.337 741.008 146.507 583.745 146.507 583.745 221.382 713.178 221.382 713.178 248.602 662.377 277.932 611.575 248.602 611.575 235.077 583.745 235.077 583.745 264.669 662.377 310.067 741.008 264.669 741.008 193.552 611.575 193.552 611.575 174.337 741.008 174.337" fill="#009ada"/></svg>