<svg xmlns="http://www.w3.org/2000/svg" width="100" height="54" viewBox="0 0 100 54">
    <g fill="none" fill-rule="evenodd">
        <g fill="#FFF" fill-rule="nonzero">
            <g>
                <g>
                    <path d="M80.05 7.542l13.517 8.066V32.01l-6.327 3.775-3.159 1.885v4.906L66.532 32.024V15.608L80.05 7.542m0-7.542L60.1 11.905v23.809L90.513 54V41.374l9.486-5.66v-23.81L80.05 0zM5.535 17.84L0 17.84 0 13.389 16.149 13.389 16.149 17.84 10.584 17.84 10.584 34.875 5.535 34.875zM15.692 30.056c0-3.622 1.521-4.512 4.35-4.911 1.43-.215 3.193-.368 5.018-.46V22.69c0-.461-.183-.645-.64-.645h-2.797c-.456 0-.638.184-.638.645v.951H16.24V22.26c0-2.701 1.247-3.96 3.923-3.96h5.748c2.677 0 3.924 1.259 3.924 3.96v12.615h-4.623V32.51c-.912 1.228-2.22 2.487-5.049 2.487-3.163 0-4.47-1.32-4.47-4.942zm9.368-.031v-2.64l-3.65.707c-.7.153-.942.43-.942 1.565 0 1.228.212 1.565.973 1.565 1.49 0 2.433-.522 3.619-1.197zM33.149 12.468L37.954 12.468 37.954 34.875 33.149 34.875zM51.397 34.905L48.386 28.521 46.135 31.529 46.135 34.875 41.421 34.875 41.421 12.468 46.135 12.468 46.135 25.452 50.728 18.3 56.141 18.3 51.397 24.562 56.445 34.875z" transform="translate(-40.000000, -8113.000000) translate(0.000000, 8081.000000) translate(40.000000, 32.000000)"/>
                    <path d="M89.836 19.524L89.836 16.028 70.263 16.028 70.263 25.433 86.373 25.433 86.373 28.852 80.05 32.536 73.727 28.852 73.727 27.153 70.263 27.153 70.263 30.87 80.05 36.573 89.836 30.87 89.836 21.937 73.727 21.937 73.727 19.524z" transform="translate(-40.000000, -8113.000000) translate(0.000000, 8081.000000) translate(40.000000, 32.000000)"/>
                </g>
            </g>
        </g>
    </g>
</svg>
