<?xml version="1.0" encoding="UTF-8" standalone="no" ?>
<!DOCTYPE svg PUBLIC "-//W3C//DTD SVG 1.1//EN" "http://www.w3.org/Graphics/SVG/1.1/DTD/svg11.dtd">
<svg xmlns="http://www.w3.org/2000/svg" xmlns:xlink="http://www.w3.org/1999/xlink" version="1.1" width="1080" height="1080" viewBox="0 0 1080 1080" xml:space="preserve">
<desc>Created with Fabric.js 5.2.4</desc>
<defs>
</defs>
<rect x="0" y="0" width="100%" height="100%" fill="transparent"></rect>
<g transform="matrix(1 0 0 1 540 540)" id="b11a3bb6-f1c8-44e9-9874-0bf19ca07a5e"  >
<rect style="stroke: none; stroke-width: 1; stroke-dasharray: none; stroke-linecap: butt; stroke-dashoffset: 0; stroke-linejoin: miter; stroke-miterlimit: 4; fill: rgb(37,150,190); fill-rule: nonzero; opacity: 1;" vector-effect="non-scaling-stroke"  x="-540" y="-540" rx="0" ry="0" width="1080" height="1080" />
</g>
<g transform="matrix(1 0 0 1 540 540)" id="c133cab4-5b39-452b-9a8f-0a4f77b7d286"  >
</g>
<g transform="matrix(6.81 0 0 6.81 540 540)"  >
<g style="" vector-effect="non-scaling-stroke"   >
		<g transform="matrix(1 0 0 1 0 0)"  >
<path style="stroke: none; stroke-width: 1; stroke-dasharray: none; stroke-linecap: butt; stroke-dashoffset: 0; stroke-linejoin: miter; stroke-miterlimit: 4; fill: rgb(255,255,255); fill-rule: nonzero; opacity: 1;" vector-effect="non-scaling-stroke"  transform=" translate(-50, -27)" d="M 80.05 7.542 L 93.567 15.608 L 93.567 32.01 L 87.24 35.785 L 84.08099999999999 37.669999999999995 L 84.08099999999999 42.57599999999999 L 66.532 32.024 L 66.532 15.608 L 80.05 7.542 M 80.05 0 L 60.1 11.905 L 60.1 35.714 L 90.513 54 L 90.513 41.374 L 99.99900000000001 35.714 L 99.99900000000001 11.904 L 80.05 0 z M 5.535 17.84 L 0 17.84 L 0 13.389 L 16.149 13.389 L 16.149 17.84 L 10.584 17.84 L 10.584 34.875 L 5.535 34.875 z M 15.692 30.056 C 15.692 26.434 17.213 25.544 20.042 25.145000000000003 C 21.472 24.930000000000003 23.235000000000003 24.777000000000005 25.060000000000002 24.685000000000002 L 25.060000000000002 22.69 C 25.060000000000002 22.229000000000003 24.877000000000002 22.045 24.42 22.045 L 21.623 22.045 C 21.167 22.045 20.985 22.229000000000003 20.985 22.69 L 20.985 23.641000000000002 L 16.24 23.641000000000002 L 16.24 22.26 C 16.24 19.559 17.487 18.3 20.162999999999997 18.3 L 25.910999999999998 18.3 C 28.587999999999997 18.3 29.834999999999997 19.559 29.834999999999997 22.26 L 29.834999999999997 34.875 L 25.211999999999996 34.875 L 25.211999999999996 32.51 C 24.299999999999997 33.738 22.991999999999997 34.997 20.162999999999997 34.997 C 16.999999999999996 34.997 15.692999999999998 33.677 15.692999999999998 30.055 z M 25.060000000000002 30.025000000000002 L 25.060000000000002 27.385 L 21.410000000000004 28.092000000000002 C 20.710000000000004 28.245 20.468000000000004 28.522000000000002 20.468000000000004 29.657000000000004 C 20.468000000000004 30.885000000000005 20.680000000000003 31.222000000000005 21.441000000000003 31.222000000000005 C 22.931 31.222000000000005 23.874000000000002 30.700000000000006 25.060000000000002 30.025000000000006 z M 33.149 12.468 L 37.954 12.468 L 37.954 34.875 L 33.149 34.875 z M 51.397 34.905 L 48.386 28.521 L 46.135 31.529 L 46.135 34.875 L 41.421 34.875 L 41.421 12.468 L 46.135 12.468 L 46.135 25.452 L 50.728 18.3 L 56.141 18.3 L 51.397 24.562 L 56.445 34.875 z" stroke-linecap="round" />
</g>
		<g transform="matrix(1 0 0 1 30.05 -0.7)"  >
<path style="stroke: none; stroke-width: 1; stroke-dasharray: none; stroke-linecap: butt; stroke-dashoffset: 0; stroke-linejoin: miter; stroke-miterlimit: 4; fill: rgb(255,255,255); fill-rule: nonzero; opacity: 1;" vector-effect="non-scaling-stroke"  transform=" translate(-80.05, -26.3)" d="M 89.836 19.524 L 89.836 16.028 L 70.263 16.028 L 70.263 25.433 L 86.373 25.433 L 86.373 28.852 L 80.05 32.536 L 73.727 28.852 L 73.727 27.153 L 70.263 27.153 L 70.263 30.87 L 80.05 36.573 L 89.836 30.87 L 89.836 21.937 L 73.727 21.937 L 73.727 19.524 z" stroke-linecap="round" />
</g>
</g>
</g>
<g transform="matrix(NaN NaN NaN NaN 0 0)"  >
<g style=""   >
</g>
</g>
<g transform="matrix(1 0 0 1 304.74 636.91)" style="" id="e75657ec-fc2e-4e95-a8e7-fe972b9b4178"  >
		<text xml:space="preserve" font-family="Lato" font-size="50" font-style="normal" font-weight="400" style="stroke: none; stroke-width: 1; stroke-dasharray: none; stroke-linecap: butt; stroke-dashoffset: 0; stroke-linejoin: miter; stroke-miterlimit: 4; fill: rgb(255,255,255); fill-rule: nonzero; opacity: 1; white-space: pre;" ><tspan x="-101.57" y="15.71" >talk5.app</tspan></text>
</g>
</svg>